<?xml version="1.0" encoding="iso-8859-1"?>
<!-- Uploaded to: SVG Repo, www.svgrepo.com, Generator: SVG Repo Mixer Tools -->
<svg version="1.1" id="Layer_1" xmlns="http://www.w3.org/2000/svg" xmlns:xlink="http://www.w3.org/1999/xlink" 
	 viewBox="0 0 512 512" xml:space="preserve">
<path style="fill:#CCCCCC;" d="M470.987,16.598v13.985L249.031,51.885L41.013,30.583V16.598C41.013,7.434,48.436,0,57.6,0h396.788
	C463.553,0,470.987,7.434,470.987,16.598z"/>
<path style="fill:#B3B3B3;" d="M470.987,482.881v9.304c0,10.942-8.874,19.816-19.827,19.816H60.829
	c-10.942,0-19.816-8.874-19.816-19.816v-9.304l168.619-56.903l105.559-0.081L470.987,482.881z"/>
<path style="fill:#CCCCCC;" d="M470.987,475.203v7.678H315.191v-39.434c0-7.085-5.75-12.823-12.835-12.823h-92.725
	c-7.085,0-12.823,5.738-12.823,12.823v39.434H41.013v-7.678V320.941v-48.366h429.973v48.366V475.203z"/>
<path style="fill:#E6E6E6;" d="M470.987,37.389v244.919H41.013V37.389v-6.807h429.973V37.389z"/>
<rect x="73.199" y="60.097" style="fill:#2BA5F7;" width="365.601" height="192.697"/>
<rect x="77.474" y="307.351" style="fill:#FFFFFF;" width="357.053" height="100.135"/>
<path style="fill:#E6E6E6;" d="M315.191,443.447v39.434H196.809v-39.434c0-7.085,5.738-12.823,12.823-12.823h92.725
	C309.442,430.624,315.191,436.362,315.191,443.447z"/>
<path style="fill:#999999;" d="M319.837,482.881h-9.292v-39.434c0-4.509-3.673-8.177-8.189-8.177h-92.725
	c-4.509,0-8.177,3.668-8.177,8.177v39.434h-9.292v-39.434c0-9.633,7.837-17.469,17.469-17.469h92.725
	c9.639,0,17.481,7.837,17.481,17.469V482.881z"/>
<path style="fill:#808080;" d="M434.526,301.543H77.474c-3.207,0-5.808,2.601-5.808,5.808v100.135c0,3.207,2.601,5.808,5.808,5.808
	h357.053c3.208,0,5.808-2.601,5.808-5.808V307.351C440.334,304.144,437.734,301.543,434.526,301.543z M428.719,334.923h-30.913
	v-21.765h30.913V334.923z M83.281,368.303v-21.765h14.216v21.765H83.281z M109.112,346.539h33.719v21.765h-33.719V346.539z
	 M352.473,334.923v-21.765h33.718v21.765H352.473z M335.782,368.303v-21.765h33.719v21.765H335.782z M290.449,368.303v-21.765
	h33.718v21.765H290.449z M199.78,368.303v-21.765h33.719v21.765H199.78z M154.446,368.303v-21.765h33.719v21.765H154.446z
	 M245.114,346.539h33.719v21.765h-33.719V346.539z M340.858,334.923h-33.719v-21.765h33.719V334.923z M295.522,334.923h-33.719
	v-21.765h33.719V334.923z M250.189,334.923H216.47v-21.765h33.719V334.923z M204.855,334.923h-33.719v-21.765h33.719V334.923z
	 M159.52,334.923h-33.719v-21.765h33.719V334.923z M159.52,379.918v21.76h-33.719v-21.76H159.52z M171.136,379.918h33.719v21.76
	h-33.719V379.918z M216.47,379.918h79.053v21.76H216.47V379.918z M307.137,379.918h33.719v21.76h-33.719V379.918z M352.473,379.918
	h33.718v21.76h-33.718V379.918z M381.117,368.303v-21.765h21.763v21.765H381.117z M414.496,346.539h14.223v21.765h-14.223V346.539z
	 M114.186,313.159v21.765H83.281v-21.765H114.186z M83.281,379.918h30.905v21.76H83.281V379.918z M397.806,401.678v-21.76h30.913
	v21.76H397.806z"/>
<g>
	<path style="fill:#F7B239;" d="M338.536,179.991h-0.009V96.84v-0.661l65.969-7.214l-1.389-12.701l-71.314,7.8H180.826l-71.316-7.8
		l-1.389,12.701l65.969,7.214v0.661v83.151v3.062l-53.534,37.474l7.327,10.466l54.609-38.227h79.626c3.528,0,6.388-2.86,6.388-6.388
		v-58.924h27.023v58.924c0,3.529,2.861,6.388,6.388,6.388h28.204l54.609,38.227l7.328-10.466l-53.525-37.468v-3.068H338.536z
		 M301.919,114.678h-39.8c-3.528,0-6.388,2.86-6.388,6.388v58.924h-68.864V96.84H325.75v83.151h-17.443v-58.924
		C308.307,117.538,305.446,114.678,301.919,114.678z"/>
	<path style="fill:#F7B239;" d="M159.314,162.907v-41.84c0-3.358-2.6-6.142-5.949-6.373l-35.968-2.48l-0.879,12.747l30.018,2.07
		v32.038l-34.906,18.544l5.995,11.283l38.298-20.346C158.009,167.441,159.314,165.271,159.314,162.907z"/>
	<path style="fill:#F7B239;" d="M364.679,127.029l30.02-2.07l-0.879-12.747l-35.968,2.48c-3.351,0.231-5.949,3.015-5.949,6.373
		v41.84c0,2.364,1.304,4.533,3.392,5.642l38.298,20.346l5.995-11.283l-34.907-18.544L364.679,127.029L364.679,127.029z"/>
</g>
</svg>